<svg xmlns="http://www.w3.org/2000/svg" xmlns:xlink="http://www.w3.org/1999/xlink" width="145.924" height="145.924" viewBox="0 0 145.924 145.924">
  <defs>
    <clipPath id="clip-path">
      <rect id="Rechteck_29" data-name="Rechteck 29" width="145.924" height="145.924" fill="#2a5349"/>
    </clipPath>
  </defs>
  <g id="Gruppe_99" data-name="Gruppe 99" transform="translate(-889 -530)">
    <g id="Gruppe_98" data-name="Gruppe 98" transform="translate(889 530)">
      <rect id="Rechteck_28" data-name="Rechteck 28" width="145.924" height="145.924" fill="#2a5349"/>
      <g id="Gruppe_97" data-name="Gruppe 97" clip-path="url(#clip-path)">
        <path id="Pfad_283" data-name="Pfad 283" d="M880.5,521.5V684.932h163.435V521.5Z" transform="translate(-889.252 -530.252)" fill="#2a5349"/>
      </g>
    </g>
    <path id="Pfad_284" data-name="Pfad 284" d="M913.654,590.359h-3.939l-1.851,8.18-1.679-8.18h-3.529l-1.7,8.094-1.743-8.094h-4.542l3.789,14.336h3.853l1.808-7.017,1.722,7.017h4.025l3.789-14.336Zm4.335,2.6v-2.6H914.46v2.6Zm.043,11.731V594.126h-3.616v10.569Zm10.369,0v-7.9c0-1.743-.819-2.862-2.583-2.862a3.276,3.276,0,0,0-3.057,1.958l-.15-1.765h-3.164v10.569h3.616v-7.253a.934.934,0,0,1,.926-.99.844.844,0,0,1,.8.926v7.318Zm10.356,0v-7.9c0-1.743-.818-2.862-2.583-2.862a3.276,3.276,0,0,0-3.057,1.958l-.15-1.765H929.8v10.569h3.616v-7.253a.934.934,0,0,1,.925-.99.844.844,0,0,1,.8.926v7.318Zm9.983-3.638v-.237h-2.992v.56a1.012,1.012,0,0,1-1.119,1.1c-.862,0-1.184-.474-1.184-1.1v-1.529h5.3v-1.98c0-2.238-1.679-3.939-4.326-3.939-2.626,0-4.5,1.7-4.5,3.982v2.97c0,2.282,1.873,3.981,4.5,3.981,2.669,0,4.326-1.356,4.326-3.809Zm-3.337-2.282h-1.958v-1.421a.979.979,0,1,1,1.958,0v1.421Zm11.286-4.693A2.6,2.6,0,0,0,953.2,596.3l-.195-2.174h-3.056v10.569h3.616v-5.854c0-1.012.818-1.851,3.014-1.357l.108-3.4Z" transform="translate(0.168 1.785)" fill="#e3ddca"/>
    <path id="Pfad_285" data-name="Pfad 285" d="M907.455,583.45l-3.81-14.336H898.5l-3.832,14.336h4l.539-2.131H902.4l.452,2.131Zm-5.64-4.93H899.9l1.033-4.628.882,4.628Zm19.329-5.639h-3.293l-.9,4.757-.257,1.506-.258-1.506-.99-4.757h-2.885l-1.011,4.757-.258,1.506-.258-1.506-.861-4.757h-3.509l2.906,10.569h2.927l1.076-4.434.3-1.356.28,1.378,1.054,4.413h2.97l2.97-10.569Zm9.534,10.741v-2.2c-.43,0-.71-.195-.71-.56v-4.5c0-2.087-1.486-3.681-4.2-3.681-2.518,0-4.111,1.271-4.111,3.466v.474h3.186v-.581c0-.582.28-.9.754-.9.624,0,.774.344.774.947v1.248c-3.422.3-5.252,1.334-5.252,3.294v.086a2.733,2.733,0,0,0,2.863,2.905,3.45,3.45,0,0,0,3.186-1.7,2.488,2.488,0,0,0,2.755,1.7Zm-4.306-3.1c0,.6-.279.969-.9.969a.888.888,0,0,1-.947-.969v-.43c0-.8.6-1.226,1.851-1.313v1.743Zm11.938-7.684a2.6,2.6,0,0,0-3.487,2.217l-.193-2.173h-3.057V583.45h3.617v-5.855c0-1.012.818-1.851,3.014-1.356l.107-3.4Zm9.7,10.612V569.114h-3.594v4.606a2.9,2.9,0,0,0-2.282-1.034,3.352,3.352,0,0,0-2.992,3.509v3.746c0,2.066,1.162,3.681,3.357,3.681a3.054,3.054,0,0,0,2.626-1.4l.172,1.227Zm-3.594-3.444c0,.667-.344,1.119-.861,1.119s-.882-.452-.882-1.119v-3.681c0-.667.366-1.119.882-1.119s.861.452.861,1.119v3.681Zm13.077.322c0-3.272-4.995-3.207-4.995-4.52,0-.43.323-.689.9-.689a.932.932,0,0,1,.99.969v.344h2.97v-.107c0-2-1.4-3.638-4-3.638-2.454,0-4.2,1.249-4.2,3.358,0,3.314,4.993,2.949,4.993,4.348,0,.5-.258.8-.989.8-.71,0-1.227-.323-1.227-1.077v-.237h-2.97v.367c0,1.915,1.506,3.379,4.348,3.379,3.014,0,4.176-1.722,4.176-3.294Zm14.052-7.362c0-2.3-1.356-4.24-5.123-4.24-3.164,0-4.951,2.088-4.951,4.348v1.334h3.659v-.947c0-1.034.41-1.528,1.314-1.528a1.168,1.168,0,0,1,1.334,1.334c0,2.153-6.608,4.025-6.608,9.041v1.141h10.353V580.2h-5.683c1.141-2.174,5.7-3.4,5.7-7.233Zm11.782,5.919V573.7c0-3.057-2.174-4.972-5.36-4.972-3.229,0-5.382,1.915-5.382,4.972v5.187c0,3.035,2.153,4.973,5.382,4.973,3.186,0,5.36-1.938,5.36-4.973Zm-3.982.151a1.277,1.277,0,0,1-1.378,1.442,1.3,1.3,0,0,1-1.421-1.442v-5.532a1.277,1.277,0,0,1,1.421-1.4,1.254,1.254,0,0,1,1.378,1.4v5.532ZM990.2,583.45V569.114h-2.842c-.215,1.206-.753,1.873-1.808,1.873H984.3v2.625h1.83v9.838Zm12.554-3.552v-.882a2.9,2.9,0,0,0-2-2.82,2.671,2.671,0,0,0,1.894-2.69v-.8c0-2.282-1.873-3.981-5.274-3.981s-5.3,1.7-5.3,3.981v.8a2.671,2.671,0,0,0,1.894,2.69,2.9,2.9,0,0,0-2,2.82v.882c0,2.217,1.938,3.961,5.4,3.961,3.444,0,5.382-1.744,5.382-3.961Zm-4-5.919a1.238,1.238,0,0,1-1.378,1.313,1.265,1.265,0,0,1-1.4-1.313v-.818a1.391,1.391,0,0,1,2.777,0v.818Zm0,5.4a1.208,1.208,0,0,1-1.378,1.335,1.233,1.233,0,0,1-1.4-1.335v-.926a1.246,1.246,0,0,1,1.4-1.313,1.229,1.229,0,0,1,1.378,1.313v.926Z" transform="translate(0.168 1.146)" fill="#fff"/>
    <path id="Pfad_286" data-name="Pfad 286" d="M905.619,554.1V550.81h-9.988v14.335h4.5v-5.552h3.337V556.6h-3.337v-2.5Zm9.669,11.042V554.576h-3.617v7.233a.915.915,0,0,1-.882.99.839.839,0,0,1-.839-.926v-7.3h-3.616v7.878c0,1.722.818,2.863,2.6,2.863a3.43,3.43,0,0,0,3.122-1.959l.15,1.786Zm7.966-7.942v-2.626h-1.916v-2.625l-3.508.667v1.958h-1.658V557.2h1.55v4.757a5.793,5.793,0,0,0,.624,3.185h3.832a5.167,5.167,0,0,1-.84-3.185V557.2Zm9.734,7.942V554.576h-3.616v7.233a.916.916,0,0,1-.883.99.839.839,0,0,1-.839-.926v-7.3h-3.616v7.878c0,1.722.818,2.863,2.6,2.863a3.431,3.431,0,0,0,3.122-1.959l.15,1.786Zm8.185-10.612a2.6,2.6,0,0,0-3.486,2.218l-.195-2.174h-3.056v10.569h3.616v-5.854c0-1.012.818-1.851,3.014-1.356l.107-3.4Zm9.646,6.974v-.237h-2.992v.56a1.012,1.012,0,0,1-1.119,1.1c-.862,0-1.184-.474-1.184-1.1V560.3h5.3v-1.98c0-2.238-1.679-3.939-4.326-3.939-2.626,0-4.5,1.7-4.5,3.982v2.97c0,2.281,1.873,3.982,4.5,3.982,2.669,0,4.326-1.356,4.326-3.811Zm-3.337-2.281h-1.958V557.8a.979.979,0,1,1,1.958,0v1.421Zm18.895-2.8v-1.851c0-2.26-1.679-3.766-4.176-3.766h-7v14.335h4.5v-4.95h2.5c2.5,0,4.176-1.486,4.176-3.767Zm-4.326.215c0,.56-.323.862-.969.862H959.7v-3.487h1.378c.646,0,.969.279.969.861v1.765Zm12.1-2.11a2.6,2.6,0,0,0-3.487,2.218l-.194-2.174h-3.057v10.569h3.617v-5.854c0-1.012.818-1.851,3.014-1.356l.107-3.4Zm9.818,6.694v-2.755c0-2.669-1.873-4.089-4.5-4.089s-4.5,1.421-4.5,4.089v2.755c0,2.713,1.873,4.091,4.5,4.091s4.5-1.378,4.5-4.091Zm-3.53.647a.98.98,0,1,1-1.958,0v-4.026a.9.9,0,0,1,.99-1.033c.582,0,.969.3.969,1.033v4.026Zm8.267-8.46v-2.6h-3.53v2.6Zm.043,11.6v-10.44h-3.616v10.655c0,.71-.194,1.206-1.421,1.206h-.3v2.282h.969c3.078,0,4.37-1.507,4.37-3.7Zm10.016-3.509v-.237h-2.992v.56a1.012,1.012,0,0,1-1.119,1.1c-.862,0-1.184-.474-1.184-1.1V560.3h5.3v-1.98c0-2.238-1.679-3.939-4.327-3.939-2.625,0-4.5,1.7-4.5,3.982v2.97c0,2.281,1.873,3.982,4.5,3.982,2.67,0,4.327-1.356,4.327-3.811Zm-3.337-2.281H993.47V557.8a.979.979,0,1,1,1.958,0v1.421Zm12.85,2.066v-.3h-2.992v.775c0,.754-.322,1.119-1.011,1.119-.647,0-1.012-.366-1.012-1.119v-3.831c0-.754.365-1.119,1.012-1.119.689,0,1.011.365,1.011,1.119v.774h2.992v-.258c0-2.582-1.463-4.068-4.133-4.068-2.625,0-4.391,1.486-4.391,4.089v2.755c0,2.691,1.766,4.091,4.391,4.091,2.67,0,4.133-1.4,4.133-4.026Zm7.764-4.09v-2.626h-1.916v-2.625l-3.508.667v1.958h-1.658V557.2h1.55v4.757a5.793,5.793,0,0,0,.624,3.185h3.832a5.167,5.167,0,0,1-.84-3.185V557.2Z" transform="translate(0.196 0.616)" fill="#fff"/>
    <path id="Pfad_287" data-name="Pfad 287" d="M900.325,545.329V540.5h-1.81l-.355,1.7-.124.653-.131-.653-.362-1.7H895.66v4.825h1.21v-2.608l.167.8.362,1.8h.949l.4-1.8.181-.8v2.608Zm1.882,0V540.5H900.76v4.825Zm3.691-2.912v-.646a1.209,1.209,0,0,0-1.3-1.267h-1.971v4.825h1.455v-1.645h.516a1.208,1.208,0,0,0,1.3-1.266Zm-1.368.086a.2.2,0,0,1-.225.233h-.218v-1.2h.218c.138,0,.225.072.225.239v.732Zm3.14,2.825V540.5h-1.448v4.825Zm5.089,0V540.5h-1.811l-.354,1.7-.123.653-.131-.653-.363-1.7h-1.883v4.825H909.3v-2.608l.167.8.362,1.8h.95l.4-1.8.181-.8v2.608Zm2.622-5.281h-.587l-1.535,5.868h.58l1.542-5.868Zm4.54,2.389c0-.289-.013-.585-.013-.874V540.54c0-.021-.027-.04-.047-.04-.336,0-.827.013-1.156.013h-1.573c-.256,0-.807-.013-1.165-.013a.035.035,0,0,0-.04.04v1.022c0,.33-.013.605-.013.88a.053.053,0,0,0,.053.055.052.052,0,0,0,.055-.047c.06-.31.114-.579.282-1.2.121-.457.269-.626.74-.639.107,0,.437-.006.471-.006a.042.042,0,0,1,.047.046v4.372c0,.114-.054.148-.2.156l-.82.046a.053.053,0,0,0-.054.055.047.047,0,0,0,.054.046c.222,0,.794-.02,1.379-.02.652,0,1.143.02,1.365.02.04,0,.061-.02.061-.046a.055.055,0,0,0-.061-.055l-.821-.046c-.135-.007-.188-.041-.188-.156v-4.372c0-.033.006-.046.047-.046l.47.006c.478.007.579.074.754.686a10.33,10.33,0,0,1,.262,1.15.063.063,0,0,0,.06.055c.027,0,.047-.021.047-.061Zm4.324,2.839c0-.028-.02-.055-.067-.055l-.451-.02c-.054,0-.074-.027-.074-.081v-1.991a.962.962,0,0,0-1.015-1.028.9.9,0,0,0-.834.637c-.007.021-.021.014-.021,0V540.5a.025.025,0,0,0-.027-.028c-.04,0-.625.028-1.17.028-.047,0-.067.027-.067.054a.054.054,0,0,0,.06.054l.5.007a.129.129,0,0,1,.135.141v4.364c0,.055-.021.081-.074.081l-.451.02c-.047,0-.067.027-.067.055a.054.054,0,0,0,.06.053h.007c.289,0,.518-.02.813-.02.262,0,.552.02.78.02h.007a.054.054,0,0,0,.06-.053c0-.028-.013-.055-.067-.055l-.417-.02a.075.075,0,0,1-.081-.081v-1.809c0-.673.363-1.077.822-1.077a.458.458,0,0,1,.464.519v2.367c0,.047-.021.081-.074.081l-.377.02c-.047,0-.067.027-.067.055s.02.053.067.053h.006c.23-.007.472-.027.733-.027.3,0,.525.02.813.02h.014a.054.054,0,0,0,.06-.054v.007Zm3.126-1.157V544.1a.062.062,0,0,0-.061-.067.067.067,0,0,0-.061.067,1.191,1.191,0,0,1-1.19,1.19.692.692,0,0,1-.74-.491,3.585,3.585,0,0,1-.108-1.042v-.067h2.1a.032.032,0,0,0,.033-.034,1.508,1.508,0,0,0-1.317-1.554,1.637,1.637,0,0,0-1.446,1.655,1.675,1.675,0,0,0,.726,1.432,1.359,1.359,0,0,0,.754.215,1.308,1.308,0,0,0,1.312-1.291Zm-.672-.625a.1.1,0,0,1-.107.107h-1.381c0-1.1.3-1.385.815-1.385.457,0,.672.3.672,1.278Zm7.565,1.782c0-.028-.027-.055-.073-.055l-.546-.033c-.276-.021-.322-.115-.39-.344l-1.271-4.445a.07.07,0,0,0-.068-.055.068.068,0,0,0-.067.055l-1.447,4.17c-.181.524-.229.571-.638.612l-.431.04c-.04.007-.06.027-.06.055a.054.054,0,0,0,.06.053c.33,0,.35-.027.875-.027.43,0,.895.027,1.19.027a.052.052,0,0,0,.054-.053c0-.028-.013-.047-.067-.055l-.525-.046c-.309-.028-.423-.087-.423-.249a1.014,1.014,0,0,1,.074-.316l.356-1.049h1.251l.363,1.311a.691.691,0,0,1,.027.162c0,.108-.061.162-.221.169l-.633.02c-.054,0-.067.027-.067.055s.021.053.067.053c.438,0,.895-.027,1.332-.027.417,0,1,.027,1.211.027.047,0,.067-.027.067-.053Zm-2.179-1.816H930.9l.646-1.91c.007-.021.013-.021.021,0l.525,1.91Zm5.3-.727a.6.6,0,0,0-.619-.618.8.8,0,0,0-.72.618c-.007.021-.021.013-.021,0v-.471a.092.092,0,0,0-.1-.1c-.08,0-.235.028-1.089.028a.054.054,0,1,0,0,.107h.451c.135,0,.182.067.182.181v2.643a.072.072,0,0,1-.081.081l-.545.02c-.047,0-.067.027-.067.055a.059.059,0,0,0,.06.053h.007c.289-.007.619-.027.914-.027.263,0,.679.02.908.02h.007c.047,0,.061-.027.061-.054s-.021-.054-.068-.054l-.539-.021a.074.074,0,0,1-.08-.08V543.2c0-.612.329-.975.679-.975.162,0,.242.067.242.154s-.1.121-.187.195a.358.358,0,0,0,.221.626c.221,0,.383-.162.383-.464Zm3.093,1.3v-.013a.067.067,0,1,0-.134,0c-.04.672-.349,1.272-1.07,1.272-.539,0-.807-.263-.807-1.527,0-1.184.282-1.554.834-1.554a1.1,1.1,0,0,1,.411.074.755.755,0,0,1,.263.175.209.209,0,0,1,.054.128.131.131,0,0,1-.088.12.48.48,0,0,0-.316.43.362.362,0,0,0,.377.371.405.405,0,0,0,.4-.451,1.025,1.025,0,0,0-1.1-.954,1.28,1.28,0,0,0-.835.322,1.811,1.811,0,0,0-.625,1.339,1.763,1.763,0,0,0,.753,1.445,1.267,1.267,0,0,0,.68.2,1.082,1.082,0,0,0,.761-.269,1.585,1.585,0,0,0,.443-1.11Zm3.96,1.245c0-.028-.02-.055-.067-.055l-.451-.02c-.054,0-.074-.027-.074-.081v-1.991a.962.962,0,0,0-1.014-1.028.9.9,0,0,0-.835.637c-.007.021-.021.014-.021,0V540.5a.025.025,0,0,0-.027-.028c-.04,0-.625.028-1.17.028-.047,0-.067.027-.067.054a.055.055,0,0,0,.061.054l.5.007a.129.129,0,0,1,.135.141v4.364c0,.055-.021.081-.074.081l-.451.02c-.047,0-.067.027-.067.055a.055.055,0,0,0,.061.053h.006c.289,0,.518-.02.813-.02.263,0,.552.02.78.02h.007a.054.054,0,0,0,.06-.053c0-.028-.013-.055-.067-.055l-.417-.02a.075.075,0,0,1-.081-.081v-1.809c0-.673.363-1.077.822-1.077a.458.458,0,0,1,.464.519v2.367c0,.047-.021.081-.074.081l-.377.02c-.047,0-.067.027-.067.055s.02.053.067.053h.006c.23-.007.472-.027.733-.027.3,0,.525.02.815.02h.013a.054.054,0,0,0,.06-.054v.007Zm1.719-4.083a.424.424,0,0,0-.847,0,.424.424,0,1,0,.847,0Zm.5,4.083c0-.028-.021-.055-.068-.055l-.457-.02c-.054,0-.074-.034-.074-.081v-2.872a.081.081,0,0,0-.087-.087c-.06,0-.214.013-1.143.028a.054.054,0,1,0,0,.107l.5.007c.108,0,.142.054.142.141v2.676c0,.055-.021.081-.074.081l-.458.02a.061.061,0,0,0-.067.055.055.055,0,0,0,.061.053h.006c.289-.007.559-.027.855-.027.261,0,.564.02.793.02h.007a.055.055,0,0,0,.061-.054v.007Zm2.518-1.17c0-.081,0-.148-.006-.23a.054.054,0,0,0-.055-.06.059.059,0,0,0-.06.06,4.024,4.024,0,0,1-.074.895c-.061.255-.209.491-.512.491-.242,0-.4-.114-.4-.471V542.33c0-.013.007-.013.013-.013h.027c.283,0,.653.013.841.013h.04a.064.064,0,0,0,.068-.068.069.069,0,0,0-.068-.073h-.04c-.188.006-.552.02-.834.02h-.034c-.006,0-.013-.006-.013-.021v-1.594a.062.062,0,0,0-.06-.067c-.034,0-.055.02-.061.067l-.08.7c-.081.676-.316.906-.746.926l-.255.013a.053.053,0,0,0-.055.047.054.054,0,0,0,.055.04h.06c.182,0,.458-.006.518-.006h.028a.034.034,0,0,1,.013.027v2.274a.8.8,0,0,0,.867.805.711.711,0,0,0,.753-.624,3.287,3.287,0,0,0,.074-.691v0Zm3.3.012V544.1a.062.062,0,0,0-.06-.067.067.067,0,0,0-.061.067,1.192,1.192,0,0,1-1.19,1.19.691.691,0,0,1-.74-.491,3.589,3.589,0,0,1-.108-1.042v-.067h2.1a.032.032,0,0,0,.033-.034,1.508,1.508,0,0,0-1.318-1.554,1.637,1.637,0,0,0-1.446,1.655,1.675,1.675,0,0,0,.726,1.432,1.359,1.359,0,0,0,.754.215,1.307,1.307,0,0,0,1.311-1.291Zm-.671-.625a.1.1,0,0,1-.108.107h-1.38c0-1.1.3-1.385.814-1.385.458,0,.673.3.673,1.278Zm3.921.537v-.013a.067.067,0,1,0-.134,0c-.04.672-.35,1.272-1.07,1.272-.539,0-.807-.263-.807-1.527,0-1.184.282-1.554.834-1.554a1.1,1.1,0,0,1,.411.074.775.775,0,0,1,.263.175.214.214,0,0,1,.054.128.131.131,0,0,1-.087.12.48.48,0,0,0-.316.43.362.362,0,0,0,.377.371.4.4,0,0,0,.4-.451,1.026,1.026,0,0,0-1.1-.954,1.28,1.28,0,0,0-.834.322,1.811,1.811,0,0,0-.625,1.339,1.763,1.763,0,0,0,.753,1.445,1.267,1.267,0,0,0,.679.2,1.078,1.078,0,0,0,.76-.269,1.581,1.581,0,0,0,.444-1.11Zm2.664.075c0-.081,0-.148-.007-.23a.054.054,0,0,0-.053-.06.06.06,0,0,0-.061.06,4.024,4.024,0,0,1-.074.895c-.061.255-.208.491-.511.491-.243,0-.4-.114-.4-.471V542.33c0-.013.006-.013.013-.013h.027c.282,0,.652.013.84.013h.041a.064.064,0,0,0,.067-.068.069.069,0,0,0-.067-.073h-.041c-.188.006-.551.02-.834.02h-.033c-.007,0-.013-.006-.013-.021v-1.594a.062.062,0,0,0-.061-.067c-.034,0-.053.02-.061.067l-.08.7c-.08.676-.316.906-.746.926l-.255.013a.051.051,0,0,0-.054.047.052.052,0,0,0,.054.04h.061c.181,0,.457-.006.518-.006h.027a.034.034,0,0,1,.013.027v2.274a.8.8,0,0,0,.867.805.711.711,0,0,0,.754-.624,3.358,3.358,0,0,0,.074-.691v0Zm4.049,1.17c0-.027-.021-.054-.068-.054,0,0-.33-.013-.484-.013-.108,0-.141-.034-.141-.114V542.2a.022.022,0,0,0-.021-.021c-.047,0-.806.007-1.386.007-.046,0-.067.027-.067.054s.021.054.067.054l.633.013c.148,0,.2.067.2.209v1.695c0,.672-.363,1.056-.822,1.056a.436.436,0,0,1-.471-.464v-2.6a.022.022,0,0,0-.021-.021c-.046,0-.511.007-1.088.007-.041,0-.061.02-.061.046a.055.055,0,0,0,.061.055l.39.013c.1.006.147.06.147.2v1.883a.969.969,0,0,0,1.009,1.029.892.892,0,0,0,.834-.632c.007-.02.021-.013.021,0v.531c0,.013.007.027.034.027.046,0,.356-.013.5-.013h.659c.047,0,.068-.027.068-.053Zm3.05-2.543a.6.6,0,0,0-.619-.618.8.8,0,0,0-.72.618c-.007.021-.021.013-.021,0v-.471a.092.092,0,0,0-.1-.1c-.08,0-.235.028-1.089.028a.054.054,0,1,0,0,.107h.451c.135,0,.182.067.182.181v2.643a.072.072,0,0,1-.081.081l-.545.02c-.047,0-.067.027-.067.055a.059.059,0,0,0,.06.053h.007c.289-.007.619-.027.914-.027.262,0,.679.02.908.02h.007c.047,0,.061-.027.061-.054s-.021-.054-.068-.054l-.539-.021a.074.074,0,0,1-.08-.08V543.2c0-.612.329-.975.679-.975.162,0,.242.067.242.154s-.1.121-.188.195a.358.358,0,0,0,.222.626c.221,0,.383-.162.383-.464Zm3.568,1.763c0-.135-.013-.31-.027-.438-.006-.047-.027-.061-.054-.061s-.047.021-.047.061.007.229.007.458c0,.195-.007.74-.3.74-.209,0-.289-.148-.289-.331v-2.058c0-.518-.417-.766-1.062-.766-.774,0-1.264.416-1.264.88a.406.406,0,0,0,.4.444.4.4,0,0,0,.195-.72c-.1-.067-.208-.1-.208-.175,0-.107.289-.315.733-.315.472,0,.647.12.647.558v.49a.113.113,0,0,1-.081.128c-.377.162-.619.263-.881.4-.383.2-.821.464-.821.949s.423.672.874.672a.87.87,0,0,0,.889-.625c.007-.028.021-.013.021,0a.616.616,0,0,0,.7.625c.538,0,.579-.5.579-.922Zm-1.277-.377a1.631,1.631,0,0,1-.2.854.621.621,0,0,1-.54.276c-.329,0-.451-.329-.451-.592a1.1,1.1,0,0,1,.7-.976c.122-.054.31-.148.492-.236v.673Zm3.435,1.157c0-.028-.021-.055-.067-.055l-.464-.02a.074.074,0,0,1-.08-.081V540.5a.03.03,0,0,0-.028-.028c-.04,0-.705.028-1.183.028-.046,0-.067.027-.067.054s.021.054.067.054l.472.007c.107,0,.168.046.168.181v4.324c0,.055-.02.081-.074.081l-.464.02a.054.054,0,1,0,0,.108h.007c.262,0,.531-.02.821-.02s.557.02.819.02h.007c.046,0,.067-.027.067-.053Zm6.6-.713c0-.141-.007-.371-.013-.457-.007-.061-.034-.068-.054-.068s-.055.021-.055.068v.437c0,.222-.074.538-.363.538-.235,0-.3-.289-.322-.478a3.338,3.338,0,0,0-.135-.847,1.425,1.425,0,0,0-.544-.552,2.709,2.709,0,0,0-.5-.282c-.013-.007-.006-.013.007-.013.511-.034,1.459-.384,1.459-1.231,0-.935-1.143-1.177-1.9-1.177h-.02c-.371,0-.714.019-1.083.019-.653,0-1.029-.019-1.211-.019-.047,0-.067.027-.067.054a.06.06,0,0,0,.061.061l.638.033c.182.007.236.047.236.229v4.07c0,.175-.061.215-.263.229l-.625.047c-.047.006-.061.027-.061.054a.055.055,0,0,0,.061.053c.221-.007.975-.027,1.271-.027s1,.033,1.224.033a.06.06,0,0,0,.061-.06c0-.028-.021-.055-.067-.055l-.626-.04c-.236-.013-.262-.061-.262-.229v-2.018l.659.007a1.288,1.288,0,0,1,.472.08.526.526,0,0,1,.384.5c.027.349.013.678.027,1,.02.519.174.895.8.895a.749.749,0,0,0,.813-.854Zm-1.318-2.886c0,.942-.364,1.15-.989,1.157l-.847.006v-2c0-.148.013-.209.229-.222.067-.006.444-.013.5-.013.727,0,1.11.269,1.11,1.07Zm4.8,2.441V544.1a.062.062,0,0,0-.061-.067.066.066,0,0,0-.061.067,1.191,1.191,0,0,1-1.19,1.19.692.692,0,0,1-.74-.491,3.592,3.592,0,0,1-.107-1.042v-.067h2.1a.032.032,0,0,0,.034-.034,1.509,1.509,0,0,0-1.318-1.554,1.637,1.637,0,0,0-1.447,1.655,1.676,1.676,0,0,0,.726,1.432,1.36,1.36,0,0,0,.754.215,1.308,1.308,0,0,0,1.312-1.291Zm-.672-.625a.1.1,0,0,1-.107.107h-1.38c0-1.1.3-1.385.814-1.385.457,0,.672.3.672,1.278Zm4.248-1.258c0-.027-.02-.046-.067-.046-.087,0-.229.019-.605.019-.4,0-.605-.019-.72-.019-.047,0-.067.027-.067.054s.02.047.06.054l.256.027c.221.027.33.074.33.249a1.307,1.307,0,0,1-.108.43l-.592,1.628c-.006.02-.02.02-.027,0l-.625-2.119a.379.379,0,0,1-.021-.107c0-.055.027-.074.1-.081l.444-.027c.047,0,.061-.027.061-.054s-.013-.054-.061-.054c-.141,0-.478.019-.861.019s-.619-.019-.8-.019a.054.054,0,0,0-.06.054c0,.027.02.047.06.054l.3.027c.175.013.2.04.269.249l.895,2.878a.063.063,0,0,0,.122,0l.948-2.562c.128-.337.208-.512.511-.558l.2-.034a.064.064,0,0,0,.061-.061Zm1.755-1.043a.423.423,0,1,0-.846,0,.423.423,0,1,0,.846,0Zm.5,4.083c0-.028-.021-.055-.067-.055l-.458-.02c-.054,0-.073-.034-.073-.081v-2.872a.082.082,0,0,0-.088-.087c-.061,0-.215.013-1.143.028a.054.054,0,1,0,0,.107l.5.007c.107,0,.141.054.141.141v2.676c0,.055-.021.081-.074.081l-.457.02a.062.062,0,0,0-.068.055.055.055,0,0,0,.061.053h.007c.289-.007.558-.027.854-.027.263,0,.565.02.794.02h.006a.055.055,0,0,0,.061-.054v.007Zm3.14-1.157V544.1a.062.062,0,0,0-.061-.067.066.066,0,0,0-.061.067,1.191,1.191,0,0,1-1.19,1.19.692.692,0,0,1-.74-.491,3.585,3.585,0,0,1-.108-1.042v-.067h2.1a.032.032,0,0,0,.034-.034,1.509,1.509,0,0,0-1.319-1.554,1.637,1.637,0,0,0-1.446,1.655,1.676,1.676,0,0,0,.726,1.432,1.359,1.359,0,0,0,.754.215,1.308,1.308,0,0,0,1.312-1.291Zm-.672-.625a.1.1,0,0,1-.107.107h-1.381c0-1.1.3-1.385.814-1.385.458,0,.673.3.673,1.278Zm5.822-1.251c0-.027-.013-.054-.061-.054-.087,0-.235.019-.612.019-.4,0-.613-.019-.727-.019-.047,0-.061.027-.061.054s.021.047.068.054l.248.027c.209.021.323.074.323.255a1.381,1.381,0,0,1-.1.424l-.592,1.628c-.007.02-.021.02-.027,0l-.558-2.119a.463.463,0,0,1-.021-.114c0-.04.021-.067.1-.074l.37-.027c.047-.006.068-.027.068-.054a.055.055,0,0,0-.061-.054c-.141,0-.478.019-.861.019s-.491-.019-.673-.019c-.046,0-.061.027-.061.054s.014.047.061.054l.236.021c.175.013.208.046.269.255l.088.309-.571,1.749c-.007.02-.021.02-.027,0l-.626-2.119a.418.418,0,0,1-.021-.107c0-.055.028-.074.1-.081l.31-.027c.04-.006.054-.027.054-.054a.049.049,0,0,0-.054-.054c-.141,0-.343.019-.727.019s-.551-.019-.733-.019a.054.054,0,0,0-.06.054c0,.027.02.047.06.054l.229.027c.175.021.2.04.27.249l.895,2.878a.071.071,0,0,0,.134,0l.815-2.421.693,2.421c.013.04.034.047.061.047a.061.061,0,0,0,.06-.047l.949-2.562c.134-.363.262-.518.511-.558l.2-.034c.04-.006.061-.027.061-.054Z" transform="translate(0.197 0.297)" fill="#fff"/>
  </g>
</svg>
