<svg xmlns="http://www.w3.org/2000/svg" width="136.785" height="184.894" viewBox="0 0 136.785 184.894">
  <g id="Gruppe_338" data-name="Gruppe 338" transform="translate(-347.75 -4466.275)">
    <path id="Pfad_261" data-name="Pfad 261" d="M135.825,127.769,12.807,143.688l0-120.921L135.823,6.846l0,120.922Z" transform="translate(335.195 4459.713)" fill="none" stroke="#2a5349" stroke-miterlimit="10" stroke-width="0.5"/>
    <path id="Pfad_262" data-name="Pfad 262" d="M49.055,41.37l-1.484.193v9.1l1.484-.191v-9.1Z" transform="translate(339.763 4464.25)" fill="#2a5349"/>
    <path id="Pfad_263" data-name="Pfad 263" d="M47.26,61.232l2.432,5.291.038.082,1.573-.2V57.3l-1.457.19V63.28l-2.469-5.385-.039-.082-1.548.2v9.1l1.47-.191V61.232Z" transform="translate(339.529 4466.343)" fill="#2a5349"/>
    <path id="Pfad_264" data-name="Pfad 264" d="M49.342,73.716l-1.533.2-2.363,9.218-.033.132.879-.115.694-2.672,3.256-.422.682,2.5.855-.112-2.416-8.647-.021-.077ZM47.2,79.6l1.266-4.98.289-.037,1.264,4.653L47.2,79.6Z" transform="translate(339.48 4468.5)" fill="#2a5349"/>
    <path id="Pfad_265" data-name="Pfad 265" d="M51.014,92.418v-.434A1.962,1.962,0,0,0,49,89.91a3.443,3.443,0,0,0-.447.029l-2.6.336-.081.01v9.04l.879-.112V95.35l1.637-.212,1.8,3.567.029.058.993-.128L49.3,94.947a2.669,2.669,0,0,0,1.715-2.529Zm-4.268,2.076V91.028l1.8-.233a2.522,2.522,0,0,1,.3-.019,1.171,1.171,0,0,1,1.284,1.336V92.5a1.682,1.682,0,0,1-1.587,1.765l-1.8.233Z" transform="translate(339.539 4470.627)" fill="#2a5349"/>
    <path id="Pfad_266" data-name="Pfad 266" d="M69.366,47.953a3.712,3.712,0,0,0,.451-.029,2.992,2.992,0,0,0,2.722-2.907V40.846a2.407,2.407,0,0,0-.488-1.4,2.159,2.159,0,0,0-1.8-.825,3.739,3.739,0,0,0-.453.031,2.932,2.932,0,0,0-2.721,2.858V45.68a2.216,2.216,0,0,0,2.29,2.273Zm-.83-6.578a1.343,1.343,0,0,1,1.293-1.3,1.9,1.9,0,0,1,.226-.014.88.88,0,0,1,1,.956v4.148A1.319,1.319,0,0,1,69.8,46.473a1.708,1.708,0,0,1-.243.017.894.894,0,0,1-1.018-.967V41.375Z" transform="translate(342.326 4463.888)" fill="#2a5349"/>
    <path id="Pfad_267" data-name="Pfad 267" d="M69.366,64.1a3.956,3.956,0,0,0,.451-.029,2.993,2.993,0,0,0,2.722-2.909v-.139l-1.484.191v.109a1.318,1.318,0,0,1-1.257,1.3,1.961,1.961,0,0,1-.246.017.9.9,0,0,1-1.018-.968V57.522a1.344,1.344,0,0,1,1.3-1.3,1.666,1.666,0,0,1,.227-.016.876.876,0,0,1,1,.946v.141L72.54,57.1v-.109a2.217,2.217,0,0,0-2.29-2.224,3.939,3.939,0,0,0-.451.029,2.933,2.933,0,0,0-2.722,2.858v4.171a2.218,2.218,0,0,0,2.29,2.275Z" transform="translate(342.326 4466.01)" fill="#2a5349"/>
    <path id="Pfad_268" data-name="Pfad 268" d="M70.607,70.962l-1.532.2L66.71,80.378l-.033.134.88-.117.694-2.671,3.256-.422.682,2.5.855-.112-2.416-8.647-.021-.076Zm-2.144,5.889,1.266-4.982.287-.036,1.265,4.653-2.818.364Z" transform="translate(342.274 4468.138)" fill="#2a5349"/>
    <path id="Pfad_269" data-name="Pfad 269" d="M71.077,91.55c-.689-.282-1.277-.5-1.845-.711l-.241-.089a1.147,1.147,0,0,1-.85-1.111,1.692,1.692,0,0,1,1.637-1.658,2.557,2.557,0,0,1,.329-.023,1.217,1.217,0,0,1,1.374,1.3v.105l.879-.114v-.08a2.015,2.015,0,0,0-2.18-2.07,3.242,3.242,0,0,0-.425.029,2.693,2.693,0,0,0-2.495,2.565A1.915,1.915,0,0,0,68.494,91.5c.3.123.593.234.884.346.416.161.847.328,1.314.525a1.31,1.31,0,0,1,.927,1.34,1.94,1.94,0,0,1-1.889,1.827,2.434,2.434,0,0,1-.321.021,1.278,1.278,0,0,1-1.419-1.332v-.1l-.879.114v.08a2.046,2.046,0,0,0,2.219,2.1,3.474,3.474,0,0,0,.439-.029A2.954,2.954,0,0,0,72.5,93.643a2.159,2.159,0,0,0-1.422-2.093Z" transform="translate(342.33 4470.258)" fill="#2a5349"/>
    <path id="Pfad_270" data-name="Pfad 270" d="M58.733,49.319a3.742,3.742,0,0,0,.454-.031,2.991,2.991,0,0,0,2.722-2.907v-.141l-1.484.193v.109a1.314,1.314,0,0,1-1.257,1.3,1.959,1.959,0,0,1-.246.016.893.893,0,0,1-1.017-.967V42.74a1.343,1.343,0,0,1,1.294-1.3,1.65,1.65,0,0,1,.226-.015.876.876,0,0,1,1,.945v.139l1.484-.19V42.21a2.416,2.416,0,0,0-.486-1.4,2.167,2.167,0,0,0-1.8-.825,3.448,3.448,0,0,0-.45.031,2.933,2.933,0,0,0-2.723,2.858v4.171a2.217,2.217,0,0,0,2.289,2.274Z" transform="translate(340.929 4464.067)" fill="#2a5349"/>
    <path id="Pfad_271" data-name="Pfad 271" d="M58.2,65.446l1.485-.191v-9.1l-1.485.191v9.1Z" transform="translate(341.16 4466.192)" fill="#2a5349"/>
    <path id="Pfad_272" data-name="Pfad 272" d="M61.694,80.07l-1.835-7.538-.019-.081-.867.113-1.863,8.1-1.559-7.58L55.535,73l-.891.116L56.554,81.9l1.107-.143,1.759-7.524,1.713,6.991.02.08,1.108-.143,1.921-9.288-.9.116L61.694,80.07Z" transform="translate(340.693 4468.258)" fill="#2a5349"/>
    <path id="Pfad_273" data-name="Pfad 273" d="M59.707,88.527a3.347,3.347,0,0,0-.441.029l-2.6.338-.079.01v9.051L59.34,97.6a2.657,2.657,0,0,0,2.392-2.7V90.614a1.974,1.974,0,0,0-2.025-2.087Zm1.147,6.45a1.671,1.671,0,0,1-1.564,1.772l-1.827.236V89.646l1.827-.236a2.269,2.269,0,0,1,.287-.019c.582,0,1.276.234,1.276,1.352v4.235Z" transform="translate(340.947 4470.446)" fill="#2a5349"/>
    <g id="Gruppe_91" data-name="Gruppe 91" transform="translate(428.981 4500.09)">
      <path id="Pfad_274" data-name="Pfad 274" d="M85.5,44.1a1.769,1.769,0,0,1,.689-1.375,10.306,10.306,0,0,1,1.165-.945,10.722,10.722,0,0,0,1.291-1.057,2.734,2.734,0,0,0,.868-2,2.225,2.225,0,0,0-.7-1.738,2.276,2.276,0,0,0-1.854-.474,2.823,2.823,0,0,0-2.569,2.728V39.5l1.1-.147v-.2A1.586,1.586,0,0,1,87.01,37.6a1.3,1.3,0,0,1,1.054.221,1.266,1.266,0,0,1,.353.995,1.5,1.5,0,0,1-.543,1.208,12.624,12.624,0,0,1-1.142.911,14.149,14.149,0,0,0-1.194.952,3.067,3.067,0,0,0-1.147,2.221v1.8l5.1-.68v-1.1l-4,.533Z" transform="translate(-84.381 -36.482)" fill="#2a5349"/>
      <path id="Pfad_275" data-name="Pfad 275" d="M86.908,52.672a2.674,2.674,0,0,0-2.394,2.71v4.31a2.4,2.4,0,0,0,.7,1.748,1.89,1.89,0,0,0,1.29.444,3.127,3.127,0,0,0,.414-.029,2.693,2.693,0,0,0,2.405-2.735v-4.31a2.358,2.358,0,0,0-.7-1.719A2.091,2.091,0,0,0,86.908,52.672Zm1.319,2.248v4.261a1.431,1.431,0,0,1-1.319,1.572,1.235,1.235,0,0,1-.964-.214,1.2,1.2,0,0,1-.33-.946V55.332a1.447,1.447,0,0,1,1.354-1.565,1.815,1.815,0,0,1,.242-.017,1.047,1.047,0,0,1,.692.218A1.213,1.213,0,0,1,88.227,54.92Z" transform="translate(-84.364 -34.359)" fill="#2a5349"/>
    </g>
    <g id="Gruppe_92" data-name="Gruppe 92" transform="translate(428.628 4536.408)">
      <path id="Pfad_276" data-name="Pfad 276" d="M89.544,75.824l-1.645.219V68.583l-3.072.666v1.9L86,70.9v5.4l-1.61.214v1.918l5.152-.686Z" transform="translate(-84.026 -68.583)" fill="#2a5349"/>
      <path id="Pfad_277" data-name="Pfad 277" d="M89.047,89.216a3.057,3.057,0,0,0,.784-1.9,2.585,2.585,0,0,0-.811-1.935,2.522,2.522,0,0,0-2.081-.515,3.073,3.073,0,0,0-2.788,3.1,2.438,2.438,0,0,0,.761,1.727,3.146,3.146,0,0,0-.844,2.067,2.815,2.815,0,0,0,.867,2.061,2.374,2.374,0,0,0,1.619.566,3.669,3.669,0,0,0,.489-.033,3.214,3.214,0,0,0,2.871-3.266A2.4,2.4,0,0,0,89.047,89.216Zm-2.108-.689a.828.828,0,0,1-.658-.144.751.751,0,0,1-.21-.569,1.035,1.035,0,0,1,.973-1.04.889.889,0,0,1,.671.141.706.706,0,0,1,.187.55A1.029,1.029,0,0,1,86.939,88.527Zm.1,1.911h0a1.265,1.265,0,0,1,.171-.012.788.788,0,0,1,.531.174.833.833,0,0,1,.238.637,1.121,1.121,0,0,1-1.044,1.192.955.955,0,0,1-.714-.161A.848.848,0,0,1,86,91.606,1.137,1.137,0,0,1,87.043,90.438Z" transform="translate(-84.069 -66.448)" fill="#2a5349"/>
    </g>
    <path id="Pfad_278" data-name="Pfad 278" d="M25.963,110.851l-13.158,21.27v.923l123.023-15.97,13.155-21.022v-1.17L25.963,110.851Z" transform="translate(335.195 4471.281)" fill="#2a5349"/>
    <path id="Pfad_279" data-name="Pfad 279" d="M24.434,111.838v59.478L147.455,155.4V95.917L24.434,111.838Z" transform="translate(336.723 4471.417)" fill="#2a5349"/>
    <path id="Pfad_280" data-name="Pfad 280" d="M43.3,146.746l-2.438-9.036-1.807.233-2.4,9.663,1.29-.166.658-2.63,2.774-.359.645,2.461,1.277-.165Zm-2.245-3.512-2.155.278L40,139.2l1.059,4.036ZM52.1,145.608l-1.843-3.723a2.934,2.934,0,0,0,1.547-2.614v-.433a2.091,2.091,0,0,0-2.567-2.212l-2.773.359v9.353l1.25-.162v-3.818l1.213-.156,1.756,3.59,1.418-.183Zm-1.559-6.186a1.381,1.381,0,0,1-1.3,1.481l-1.523.2v-3.006l1.5-.195a1.051,1.051,0,0,1,1.331,1.142v.38Zm10.011,2.627-1.263.164a1.477,1.477,0,0,1-1.394,1.492c-.465.06-1.433.015-1.433-1.139v-4.383a1.5,1.5,0,0,1,1.433-1.5,1.1,1.1,0,0,1,1.394,1.119l1.263-.164a2.2,2.2,0,0,0-2.657-2.2,2.925,2.925,0,0,0-2.671,2.876v4.409a2.213,2.213,0,0,0,2.658,2.253,2.975,2.975,0,0,0,2.67-2.929Zm8.633,1.349v-9.353l-1.263.164v3.817l-2.982.386v-3.817l-1.25.162v9.352l1.25-.162v-4.263l2.982-.386v4.263l1.263-.163Zm4.26-9.9v9.353l1.263-.164V133.33l-1.263.163Zm9.909,0v-1.284l-5.6.724v1.284l2.168-.281v8.069l1.25-.162v-8.069l2.181-.282Zm8.154,7.012v-1.257l-3.858.5V136.7l3.574-.463v-1.257l-3.574.463v-2.521l3.858-.5v-1.271l-5.108.661v9.353l5.108-.662Zm8.62-3.58-1.264.163a1.477,1.477,0,0,1-1.394,1.492c-.465.06-1.433.016-1.433-1.139v-4.383a1.5,1.5,0,0,1,1.433-1.5,1.1,1.1,0,0,1,1.394,1.119l1.264-.164a2.2,2.2,0,0,0-2.658-2.2,2.926,2.926,0,0,0-2.67,2.876V137.6a2.212,2.212,0,0,0,2.658,2.253,2.974,2.974,0,0,0,2.67-2.928Zm7.781-6.611v-1.284l-5.6.724v1.284l2.168-.281v8.069l1.249-.162V130.6l2.181-.282Zm8.117,4.554v-6.888l-1.25.162v6.874a1.487,1.487,0,0,1-1.407,1.507,1.116,1.116,0,0,1-1.42-1.142V128.51l-1.25.162v6.874a2.17,2.17,0,0,0,2.67,2.25,2.9,2.9,0,0,0,2.658-2.926Zm9.251,1.267-1.844-3.723a2.934,2.934,0,0,0,1.547-2.614v-.433a2.09,2.09,0,0,0-2.566-2.212l-2.774.359v9.353l1.25-.162v-3.818l1.214-.157,1.755,3.591,1.419-.183Zm-1.56-6.186a1.381,1.381,0,0,1-1.3,1.481l-1.524.2v-3.005l1.5-.195a1.05,1.05,0,0,1,1.329,1.14v.381Zm10,5.094v-1.258l-3.858.5v-3.046l3.574-.463v-1.258l-3.574.463v-2.521l3.858-.5v-1.271l-5.108.661v9.352l5.108-.661Z" transform="translate(338.329 4475.33)" fill="#fff"/>
    <path id="Pfad_281" data-name="Pfad 281" d="M37.285,125.067v9.352l1.263-.163V124.9l-1.263.164Zm10.772,7.958v-9.353l-1.237.161v6.6l-2.763-6.241-1.379.179v9.352l1.25-.162v-6.493l2.723,6.141,1.405-.182Zm9.485-1.228v-9.352l-1.238.16v6.6l-2.763-6.241-1.379.179v9.352l1.25-.162v-6.493l2.724,6.141,1.405-.182Zm9.2-3.656v-4.409a2.2,2.2,0,0,0-2.658-2.2,2.926,2.926,0,0,0-2.67,2.877v4.409a2.213,2.213,0,0,0,2.658,2.253,2.975,2.975,0,0,0,2.67-2.929Zm-1.263.15a1.484,1.484,0,0,1-1.4,1.506c-.464.06-1.432.015-1.432-1.14v-4.383a1.5,1.5,0,0,1,1.432-1.5,1.1,1.1,0,0,1,1.4,1.131v4.383Zm9.25-8.071-1.948,8.332-1.91-7.833-1.277.165,2.31,9.053,1.806-.233,2.284-9.649-1.265.164Zm9.988,8.06-2.439-9.038-1.806.234-2.4,9.663,1.291-.167.657-2.631,2.774-.359.646,2.462,1.277-.165Zm-2.246-3.513-2.154.279,1.1-4.314,1.058,4.035Zm9.636-5.512v-1.284l-5.6.724v1.284l2.168-.281v8.069l1.25-.162v-8.069l2.181-.282Zm3.047-1.679v9.353l1.263-.164v-9.352l-1.263.163Zm9.7-1.255-1.948,8.332L101,116.822l-1.277.165,2.31,9.053,1.806-.233,2.284-9.649-1.265.164Zm9.548,8.117v-1.258l-3.858.5v-3.045l3.574-.463v-1.258l-3.574.463v-2.521l3.858-.5v-1.272l-5.108.662V125.1l5.108-.661Z" transform="translate(338.412 4473.936)" fill="#fff"/>
    <path id="Pfad_282" data-name="Pfad 282" d="M126.272,161.025V159.8l-.525.068a1.423,1.423,0,0,0-1.181.758v-.6l-1.245.161v6.766l1.245-.161v-4.264a1.272,1.272,0,0,1,1.01-1.41Zm-6.334,2.214-2.716.352v-.248a1.411,1.411,0,0,1,1.364-1.453c1.076-.139,1.352.528,1.352,1.1Zm1.257-.411a2.061,2.061,0,0,0-2.609-2.134,2.8,2.8,0,0,0-2.608,2.809v2.039a2.069,2.069,0,0,0,2.608,2.15,2.915,2.915,0,0,0,2.583-2.68l-1.283.166a1.453,1.453,0,0,1-1.3,1.291c-1.09.141-1.364-.507-1.364-1.087v-.58l3.973-.515Zm-7.357,5.349v-4.406a1.93,1.93,0,0,0-2.438-2.147,2.817,2.817,0,0,0-1.443.662v-.372l-1.245.161v6.766l1.245-.161v-4.432a1.552,1.552,0,0,1,1.443-1.427c1.076-.14,1.207.542,1.207,1.11v4.406Zm-7.4.957v-4.406A1.931,1.931,0,0,0,104,162.582a2.816,2.816,0,0,0-1.444.662v-.372l-1.243.161V169.8l1.243-.161v-4.432A1.553,1.553,0,0,1,104,163.779c1.076-.14,1.207.542,1.207,1.11v4.406Zm-7.448-8.291-1.455.189v1.622l1.455-.189Zm-.105,2.5-1.232.16v6.768l1.232-.16Zm-3.16.41-1.3.169-1.036,4.644L92.265,164.2l-1.153.149-1.129,4.657-1.035-4.376-1.3.167,1.626,6.556,1.351-.175,1.064-4.4,1.062,4.128,1.363-.176Z" transform="translate(345.029 4479.812)" fill="#2a5349"/>
    <rect id="Rechteck_27" data-name="Rechteck 27" width="123.02" height="83.703" transform="translate(361.514 4567.465)" fill="none"/>
  </g>
</svg>
