<svg version="1.1" xmlns="http://www.w3.org/2000/svg" xmlns:xlink="http://www.w3.org/1999/xlink" x="0px" y="0px"
	 viewBox="0 0 195.5 40.7" enable-background="new 0 0 195.5 40.7" xml:space="preserve">
<g id="Gruppe_347">
	<g id="Gruppe_208" transform="translate(0 20.738)">
		<path id="Pfad_522" fill="#E3DDCA" d="M28.9,19.5v-19h-7v19L28.9,19.5z"/>
		<path id="Pfad_523" fill="#E3DDCA" d="M51,19.5v-19h-6.6v9.1l-6.1-9.1h-6.5v19h6.6v-9.1l6,9.1L51,19.5z"/>
		<path id="Pfad_524" fill="#E3DDCA" d="M66.9,6.2V0.5H52.3v5.7h3.8v13.3h7V6.2H66.9z"/>
		<path id="Pfad_525" fill="#E3DDCA" d="M81.2,19.5v-5.3h-6.5v-1.8h5.8V7.4h-5.8V5.8H81V0.5H68.2v19L81.2,19.5z"/>
		<path id="Pfad_526" fill-rule="evenodd" clip-rule="evenodd" fill="#E3DDCA" d="M100.4,19.5l-4.6-7.6c2.2-0.6,3.7-2.7,3.5-5.1
			c0-1.4-0.4-2.7-1.2-3.7c-1.8-2.3-4.5-2.6-7.2-2.6H83v19h6.5v-7l3.5,7L100.4,19.5z M92.6,7.2c0,1.3-0.9,1.6-2,1.6h-1.1V5.6h1.2
			C91.7,5.6,92.5,6,92.6,7.2L92.6,7.2z"/>
		<path id="Pfad_527" fill-rule="evenodd" clip-rule="evenodd" fill="#E3DDCA" d="M118,14.1c0-2.3-1.2-3.5-3.2-4.5
			c1.5-0.8,2.4-2.3,2.4-4c0-1-0.3-2-0.8-2.8c-1.4-2.1-3.6-2.3-5.9-2.3h-8.9v19h9.2c1.7,0.1,3.4-0.2,5-1.1
			C117.1,17.5,118.1,15.9,118,14.1L118,14.1z M110.7,6.3c0,1.2-0.9,1.4-1.9,1.4H108V5h1C109.9,5,110.7,5.3,110.7,6.3L110.7,6.3z
			 M111.4,13.3c0,1.4-1.1,1.5-2.2,1.5H108v-3.1h1.3C110.4,11.7,111.4,12,111.4,13.3L111.4,13.3z"/>
		<path id="Pfad_528" fill-rule="evenodd" clip-rule="evenodd" fill="#E3DDCA" d="M139.6,9.9c0-5.7-4.4-9.9-10.3-9.9
			c-6,0-10.3,4.1-10.3,10c0,5.8,4.4,10,10.5,10C135.4,20,139.6,15.8,139.6,9.9L139.6,9.9z M132.7,10c0.1,1.9-1.3,3.5-3.2,3.7
			c-0.1,0-0.2,0-0.2,0c-1.9,0-3.4-1.6-3.4-3.4c0-0.1,0-0.1,0-0.2c-0.2-1.9,1.2-3.6,3.1-3.7s3.6,1.2,3.7,3.1
			C132.7,9.6,132.7,9.8,132.7,10L132.7,10z"/>
		<path id="Pfad_529" fill-rule="evenodd" clip-rule="evenodd" fill="#E3DDCA" d="M159.9,10.2c0.1-3.1-1.3-6.1-3.9-7.9
			c-2.3-1.6-5-1.8-7.7-1.8h-7.1v19.1h7.5c1.5,0.1,3-0.1,4.4-0.4C157.5,18,159.9,14.6,159.9,10.2L159.9,10.2z M152.9,10
			c0,2.6-1.7,3.8-4.2,3.8h-0.5V6.3h0.5C151.1,6.3,152.9,7.5,152.9,10L152.9,10z"/>
		<path id="Pfad_530" fill="#E3DDCA" d="M174.5,19.5v-5.3H168v-1.8h5.8V7.4H168V5.8h6.3V0.5h-12.8v19L174.5,19.5z"/>
		<path id="Pfad_531" fill="#E3DDCA" d="M195.5,19.5v-19h-6.6v9.1l-6.1-9.1h-6.5v19h6.6v-9.1l6,9.1L195.5,19.5z"/>
		<path id="Pfad_532" fill="#E3DDCA" d="M0,0.5h18.9v18.9l-5.9-6l-5.9,6H0v-6.9l6-6L0,0.5L0,0.5z"/>
	</g>
</g>
<g enable-background="new    ">
	<path fill="#E3DDCA" d="M1.1,1.6H6v1.2H2.3v2.3h3.5v1.1H2.3v2.6H6V10H1.1V1.6z"/>
	<path fill="#E3DDCA" d="M9.2,1.7c0,0.6-0.4,1-1,1c-0.6,0-1-0.4-1-1c0-0.5,0.4-1,1-1C8.7,0.7,9.2,1.1,9.2,1.7z M7.5,3.9h1.3V10H7.5
		V3.9z"/>
	<path fill="#E3DDCA" d="M16.3,6.3V10H15V6.5C15,5.6,14.5,5,13.6,5c-0.7,0-1.3,0.3-1.7,0.9V10h-1.3V3.9h1.2v0.9c0.4-0.7,1.2-1,2-1
		C15.4,3.8,16.3,4.7,16.3,6.3z"/>
	<path fill="#E3DDCA" d="M23.8,7.1h-4.9C19,8.2,19.8,8.9,21,8.9c0.7,0,1.4-0.3,2-1l0.8,0.9c-0.8,0.9-1.7,1.3-2.8,1.3
		c-2,0-3.3-1.4-3.3-3.2c0-1.8,1.3-3.1,3.2-3.1c1.8,0,3,1.3,3,3.1V7.1z M19,6h3.4c-0.2-0.7-0.8-1.1-1.7-1.1C19.9,4.9,19.3,5.3,19,6z"
		/>
	<path fill="#E3DDCA" d="M35.7,5.1v3.4c-0.9,1.1-2.1,1.7-3.6,1.7c-2.6,0-4.4-1.9-4.4-4.3c0-2.5,1.9-4.3,4.4-4.3
		c1.4,0,2.6,0.5,3.4,1.5l-0.9,0.9c-0.6-0.7-1.5-1.2-2.5-1.2c-1.8,0-3,1.3-3,3c0,1.8,1.3,3.1,3,3.1c0.9,0,1.7-0.3,2.3-0.9V6.3h-2V5.1
		H35.7z"/>
	<path fill="#E3DDCA" d="M43.2,7.1h-4.9c0.1,1.1,0.9,1.8,2.1,1.8c0.7,0,1.4-0.3,2-1l0.8,0.9c-0.8,0.9-1.7,1.3-2.8,1.3
		c-2,0-3.3-1.4-3.3-3.2c0-1.8,1.3-3.1,3.2-3.1c1.8,0,3,1.3,3,3.1V7.1z M38.4,6h3.4c-0.2-0.7-0.8-1.1-1.7-1.1
		C39.3,4.9,38.6,5.3,38.4,6z"/>
	<path fill="#E3DDCA" d="M52.9,3.9L51,10h-1.1l-1.5-4.3L46.8,10h-1.1l-1.9-6.1h1.3l1.2,4.5L47.8,4h1.1l1.4,4.4l1.2-4.5H52.9z"/>
	<path fill="#E3DDCA" d="M59.7,7.1h-4.9c0.1,1.1,0.9,1.8,2.1,1.8c0.7,0,1.4-0.3,2-1l0.8,0.9c-0.8,0.9-1.7,1.3-2.8,1.3
		c-2,0-3.3-1.4-3.3-3.2c0-1.8,1.3-3.1,3.2-3.1c1.8,0,3,1.3,3,3.1V7.1z M54.9,6h3.4c-0.2-0.7-0.8-1.1-1.7-1.1
		C55.8,4.9,55.2,5.3,54.9,6z"/>
	<path fill="#E3DDCA" d="M62.4,6.1V10h-1.3V3.9h1.2v1c0.5-0.7,1.5-1.1,2.4-1.1L64.9,5C63.8,5.1,62.9,5.4,62.4,6.1z"/>
	<path fill="#E3DDCA" d="M72.4,6.9c0,1.8-1.3,3.2-3,3.2c-0.8,0-1.5-0.3-2-0.9V10h-1.2V1h1.3v3.6c0.5-0.6,1.1-0.9,2-0.9
		C71.1,3.8,72.4,5.1,72.4,6.9z M71.1,6.9c0-1.1-0.8-2-2-2c-0.7,0-1.4,0.3-1.7,0.9V8c0.4,0.6,1,0.9,1.7,0.9
		C70.3,8.9,71.1,8.1,71.1,6.9z"/>
	<path fill="#E3DDCA" d="M79.6,7.1h-4.9c0.1,1.1,0.9,1.8,2.1,1.8c0.7,0,1.4-0.3,2-1l0.8,0.9c-0.8,0.9-1.7,1.3-2.8,1.3
		c-2,0-3.3-1.4-3.3-3.2c0-1.8,1.3-3.1,3.2-3.1c1.8,0,3,1.3,3,3.1V7.1z M74.8,6h3.4c-0.2-0.7-0.8-1.1-1.7-1.1
		C75.7,4.9,75.1,5.3,74.8,6z"/>
	<path fill="#E3DDCA" d="M89.3,3.9L87.4,10h-1.1l-1.5-4.3L83.3,10h-1.1l-1.9-6.1h1.3l1.2,4.5L84.2,4h1.1l1.4,4.4L88,3.9H89.3z"/>
	<path fill="#E3DDCA" d="M96.2,7.1h-4.9c0.1,1.1,0.9,1.8,2.1,1.8c0.7,0,1.4-0.3,2-1l0.8,0.9c-0.8,0.9-1.7,1.3-2.8,1.3
		c-2,0-3.3-1.4-3.3-3.2c0-1.8,1.3-3.1,3.2-3.1c1.8,0,3,1.3,3,3.1V7.1z M91.4,6h3.4c-0.2-0.7-0.8-1.1-1.7-1.1
		C92.3,4.9,91.6,5.3,91.4,6z"/>
	<path fill="#E3DDCA" d="M97.7,1h1.3v9h-1.3V1z"/>
	<path fill="#E3DDCA" d="M105.4,9.3c-0.6,0.6-1.2,0.8-2,0.8c-1.3,0-2.1-0.8-2.1-2.2V5h-1.1V3.9h1.1V2h1.3v1.9h2.6V5h-2.6v2.7
		c0,0.8,0.4,1.2,1,1.2c0.4,0,0.9-0.2,1.2-0.6L105.4,9.3z"/>
	<path fill="#E3DDCA" d="M115.6,3.9L113,10h-1.4l-2.6-6.1h1.4l1.8,4.9l1.8-4.9H115.6z"/>
	<path fill="#E3DDCA" d="M116,6.9c0-1.8,1.4-3.2,3.2-3.2c1.8,0,3.2,1.4,3.2,3.2c0,1.8-1.4,3.2-3.2,3.2C117.4,10.1,116,8.8,116,6.9z
		 M121.2,6.9c0-1.1-0.8-1.9-1.9-1.9c-1.1,0-1.9,0.8-1.9,1.9c0,1.1,0.8,2,1.9,2C120.4,8.9,121.2,8.1,121.2,6.9z"/>
	<path fill="#E3DDCA" d="M129.6,6.3V10h-1.3V6.5c0-0.9-0.6-1.5-1.5-1.5c-0.7,0-1.3,0.3-1.7,0.9V10h-1.3V3.9h1.2v0.9
		c0.4-0.7,1.2-1,2-1C128.7,3.8,129.6,4.7,129.6,6.3z"/>
</g>
</svg>
